# xmcd
#
# Track frame offsets: 
#        150
#        17079
#        30639
#        47199
#        63719
#        82735
#        97151
#        110071
#        128893
#        143053
#
# Disc length: 2088 seconds
#
# Revision: 0
# Processed by: cddbd v1.5.1PL0 Copyright (c) Steve Scherf et al.
# Submitted via: ExactAudioCopy v0.95a5
#
DISCID=8908260a
DTITLE=Megon McDonough with Don Stiernberg - The Patsy Project
DYEAR=2002
DGENRE=Jazz
TTITLE0=Leavin' On Your Mind
TTITLE1=Lovesick Blues
TTITLE2=Sweet Dreams (Of You)
TTITLE3=I Fall To Pieces
TTITLE4=Bill Baily
TTITLE5=Back In Baby's Arms
TTITLE6=Walkin' After Midnight
TTITLE7=Crazy
TTITLE8=Your Cheatin' Heart
TTITLE9=So Wrong
EXTD=
EXTT0=
EXTT1=
EXTT2=
EXTT3=
EXTT4=
EXTT5=
EXTT6=
EXTT7=
EXTT8=
EXTT9=
PLAYORDER=
